<?xml version="1.0" encoding="UTF-8"?>
<svg width="800px" height="800px" viewBox="0 0 24 24" version="1.1" xmlns="http://www.w3.org/2000/svg" xmlns:xlink="http://www.w3.org/1999/xlink">
    <title>Car Icon</title>
    <g stroke="none" stroke-width="1" fill="none" fill-rule="evenodd">
        <path d="M19,14 L19,16 C19,16.5522847 18.5522847,17 18,17 L16,17 C15.4477153,17 15,16.5522847 15,16 L15,14 L9,14 L9,16 C9,16.5522847 8.55228475,17 8,17 L6,17 C5.44771525,17 5,16.5522847 5,16 L5,14 L5,13 L5,10.5 C5,9.67157288 5.67157288,9 6.5,9 L17.5,9 C18.3284271,9 19,9.67157288 19,10.5 L19,13 L19,14 Z" fill="#1E88E5"></path>
        <path d="M6.5,9 L17.5,9 C18.3284271,9 19,9.67157288 19,10.5 L19,11 L5,11 L5,10.5 C5,9.67157288 5.67157288,9 6.5,9 Z" fill="#0D47A1"></path>
        <rect stroke="#1E88E5" stroke-width="2" x="3" y="11" width="18" height="5" rx="1"></rect>
        <rect fill="#1E88E5" x="7" y="14" width="2" height="3" rx="1"></rect>
        <rect fill="#1E88E5" x="15" y="14" width="2" height="3" rx="1"></rect>
        <path d="M5,11 L5,7 C5,5.34314575 6.34314575,4 8,4 L16,4 C17.6568542,4 19,5.34314575 19,7 L19,11" stroke="#1E88E5" stroke-width="2"></path>
        <rect fill="#2962FF" x="5" y="4" width="14" height="2" rx="1"></rect>
    </g>
</svg> 